<mxfile host="65bd71144e">
    <diagram id="yfLFcX6K1mejWxbqN_fu" name="第 1 页">
        <mxGraphModel dx="888" dy="670" grid="1" gridSize="10" guides="1" tooltips="1" connect="1" arrows="1" fold="1" page="1" pageScale="1" pageWidth="827" pageHeight="1169" math="0" shadow="0">
            <root>
                <mxCell id="0"/>
                <mxCell id="1" parent="0"/>
                <mxCell id="4" style="edgeStyle=none;html=1;exitX=1;exitY=0.5;exitDx=0;exitDy=0;entryX=0;entryY=0.5;entryDx=0;entryDy=0;sketch=1;" parent="1" source="2" target="3" edge="1">
                    <mxGeometry relative="1" as="geometry"/>
                </mxCell>
                <mxCell id="8" style="edgeStyle=none;sketch=1;html=1;exitX=1;exitY=0.5;exitDx=0;exitDy=0;entryX=0;entryY=0.5;entryDx=0;entryDy=0;" parent="1" source="2" target="7" edge="1">
                    <mxGeometry relative="1" as="geometry"/>
                </mxCell>
                <mxCell id="28" style="edgeStyle=orthogonalEdgeStyle;sketch=1;html=1;exitX=1;exitY=0.5;exitDx=0;exitDy=0;entryX=0;entryY=0.5;entryDx=0;entryDy=0;fontSize=12;curved=1;" parent="1" source="2" target="27" edge="1">
                    <mxGeometry relative="1" as="geometry"/>
                </mxCell>
                <mxCell id="2" value="SDS&lt;br&gt;simple dynamic string" style="rounded=0;whiteSpace=wrap;html=1;fillColor=#ffe6cc;strokeColor=#d79b00;comic=1;" parent="1" vertex="1">
                    <mxGeometry x="30" y="137" width="130" height="40" as="geometry"/>
                </mxCell>
                <mxCell id="6" style="edgeStyle=none;sketch=1;html=1;exitX=1;exitY=0.5;exitDx=0;exitDy=0;entryX=0;entryY=0.5;entryDx=0;entryDy=0;" parent="1" source="3" target="5" edge="1">
                    <mxGeometry relative="1" as="geometry"/>
                </mxCell>
                <mxCell id="3" value="SDS是什么" style="rounded=0;whiteSpace=wrap;html=1;fillColor=#b0e3e6;strokeColor=#0e8088;comic=1;" parent="1" vertex="1">
                    <mxGeometry x="200" y="50" width="90" height="30" as="geometry"/>
                </mxCell>
                <mxCell id="5" value="SDS的直接翻译为&lt;b&gt;“简单动态字符串”&lt;/b&gt;，这是在redis中的字符串对象的一种实现形式，用于代替C语言直接支持的字符串" style="rounded=0;whiteSpace=wrap;html=1;fillColor=#ffe6cc;strokeColor=#d79b00;comic=1;sketch=1;" parent="1" vertex="1">
                    <mxGeometry x="330" y="37.5" width="220" height="55" as="geometry"/>
                </mxCell>
                <mxCell id="11" style="edgeStyle=none;sketch=1;html=1;exitX=1;exitY=0.5;exitDx=0;exitDy=0;entryX=0;entryY=0.5;entryDx=0;entryDy=0;fontSize=12;" parent="1" source="7" target="10" edge="1">
                    <mxGeometry relative="1" as="geometry"/>
                </mxCell>
                <mxCell id="7" value="SDS的结构" style="rounded=0;whiteSpace=wrap;html=1;fillColor=#dae8fc;strokeColor=#6c8ebf;comic=1;" parent="1" vertex="1">
                    <mxGeometry x="200" y="142" width="90" height="30" as="geometry"/>
                </mxCell>
                <mxCell id="9" value="&lt;div style=&quot;color: rgb(56 , 58 , 66) ; background-color: rgb(250 , 250 , 250) ; font-family: &amp;#34;consolas&amp;#34; , &amp;#34;courier new&amp;#34; , monospace ; line-height: 22px&quot;&gt;&lt;div&gt;&lt;span style=&quot;color: #a626a4&quot;&gt;struct&lt;/span&gt; &lt;span style=&quot;color: #c18401&quot;&gt;sdshdr&lt;/span&gt; {&lt;/div&gt;&lt;div&gt;&amp;nbsp; &amp;nbsp; &lt;span style=&quot;color: #a626a4&quot;&gt;int&lt;/span&gt; &lt;span style=&quot;color: #e45649&quot;&gt;len&lt;/span&gt;;&amp;nbsp;&lt;span style=&quot;color: rgb(160 , 161 , 167) ; font-style: italic&quot;&gt;// buf 中已占用空间的长度&lt;/span&gt;&lt;/div&gt;&lt;div&gt;&amp;nbsp; &amp;nbsp; &lt;span style=&quot;color: #a626a4&quot;&gt;int&lt;/span&gt; &lt;span style=&quot;color: #e45649&quot;&gt;free&lt;/span&gt;;&lt;span style=&quot;color: rgb(160 , 161 , 167) ; font-style: italic&quot;&gt;// buf 中剩余可用空间的长度&lt;/span&gt;&lt;/div&gt;&lt;div&gt;&amp;nbsp; &amp;nbsp; &lt;span style=&quot;color: #a626a4&quot;&gt;char&lt;/span&gt; &lt;span style=&quot;color: #e45649&quot;&gt;buf&lt;/span&gt;&lt;span style=&quot;color: #a626a4&quot;&gt;[]&lt;/span&gt;;&lt;span style=&quot;color: rgb(160 , 161 , 167) ; font-style: italic&quot;&gt;// 数据空间&lt;/span&gt;&lt;/div&gt;&lt;div&gt;};&lt;/div&gt;&lt;/div&gt;" style="rounded=0;whiteSpace=wrap;html=1;fillColor=#ffe6cc;strokeColor=#d79b00;comic=1;align=left;" parent="1" vertex="1">
                    <mxGeometry x="650" y="100" width="260" height="116" as="geometry"/>
                </mxCell>
                <mxCell id="12" style="edgeStyle=none;sketch=1;html=1;exitX=1;exitY=0.5;exitDx=0;exitDy=0;entryX=0;entryY=0.5;entryDx=0;entryDy=0;fontSize=12;" parent="1" source="10" target="9" edge="1">
                    <mxGeometry relative="1" as="geometry"/>
                </mxCell>
                <mxCell id="26" style="edgeStyle=none;sketch=1;html=1;exitX=0.5;exitY=1;exitDx=0;exitDy=0;entryX=0.5;entryY=0;entryDx=0;entryDy=0;fontSize=12;" parent="1" source="10" target="13" edge="1">
                    <mxGeometry relative="1" as="geometry"/>
                </mxCell>
                <mxCell id="10" value="" style="shape=image;imageAspect=0;aspect=fixed;verticalLabelPosition=bottom;verticalAlign=top;comic=1;sketch=1;fontSize=12;image=https://codereaper-image-bed.oss-cn-shenzhen.aliyuncs.com/img/image-20220906115459045.png;imageBorder=default;" parent="1" vertex="1">
                    <mxGeometry x="320" y="100" width="293.81" height="114" as="geometry"/>
                </mxCell>
                <mxCell id="25" value="" style="group" parent="1" vertex="1" connectable="0">
                    <mxGeometry x="390" y="250" width="181" height="108" as="geometry"/>
                </mxCell>
                <mxCell id="13" value="&lt;b&gt;SDS&lt;/b&gt;" style="rounded=0;whiteSpace=wrap;html=1;comic=0;sketch=0;fontSize=11;strokeColor=#82b366;fillColor=#d5e8d4;" parent="25" vertex="1">
                    <mxGeometry width="150" height="25" as="geometry"/>
                </mxCell>
                <mxCell id="14" value="&lt;b&gt;free&lt;br&gt;0&lt;br&gt;&lt;/b&gt;" style="rounded=0;whiteSpace=wrap;html=1;comic=0;sketch=0;fontSize=11;strokeColor=#82b366;fillColor=#d5e8d4;" parent="25" vertex="1">
                    <mxGeometry y="25" width="50" height="32.5" as="geometry"/>
                </mxCell>
                <mxCell id="15" value="&lt;b&gt;len&lt;br&gt;5&lt;br&gt;&lt;/b&gt;" style="rounded=0;whiteSpace=wrap;html=1;comic=0;sketch=0;fontSize=11;strokeColor=#82b366;fillColor=#d5e8d4;" parent="25" vertex="1">
                    <mxGeometry x="50" y="25" width="50" height="32.5" as="geometry"/>
                </mxCell>
                <mxCell id="16" value="&lt;b&gt;buf&lt;br&gt;&lt;/b&gt;" style="rounded=0;whiteSpace=wrap;html=1;comic=0;sketch=0;fontSize=11;strokeColor=#82b366;fillColor=#d5e8d4;" parent="25" vertex="1">
                    <mxGeometry x="100" y="25" width="50" height="32.5" as="geometry"/>
                </mxCell>
                <mxCell id="17" value="&lt;b&gt;R&lt;br&gt;&lt;/b&gt;" style="rounded=0;whiteSpace=wrap;html=1;comic=0;sketch=0;fontSize=11;strokeColor=#0e8088;fillColor=#b0e3e6;" parent="25" vertex="1">
                    <mxGeometry x="61" y="85.5" width="20" height="22.5" as="geometry"/>
                </mxCell>
                <mxCell id="18" value="&lt;b&gt;e&lt;br&gt;&lt;/b&gt;" style="rounded=0;whiteSpace=wrap;html=1;comic=0;sketch=0;fontSize=11;strokeColor=#0e8088;fillColor=#b0e3e6;" parent="25" vertex="1">
                    <mxGeometry x="81" y="85.5" width="20" height="22.5" as="geometry"/>
                </mxCell>
                <mxCell id="19" value="&lt;b&gt;d&lt;br&gt;&lt;/b&gt;" style="rounded=0;whiteSpace=wrap;html=1;comic=0;sketch=0;fontSize=11;strokeColor=#0e8088;fillColor=#b0e3e6;" parent="25" vertex="1">
                    <mxGeometry x="101" y="85.5" width="20" height="22.5" as="geometry"/>
                </mxCell>
                <mxCell id="20" value="&lt;b&gt;i&lt;br&gt;&lt;/b&gt;" style="rounded=0;whiteSpace=wrap;html=1;comic=0;sketch=0;fontSize=11;strokeColor=#0e8088;fillColor=#b0e3e6;" parent="25" vertex="1">
                    <mxGeometry x="121" y="85.5" width="20" height="22.5" as="geometry"/>
                </mxCell>
                <mxCell id="21" value="&lt;b&gt;s&lt;br&gt;&lt;/b&gt;" style="rounded=0;whiteSpace=wrap;html=1;comic=0;sketch=0;fontSize=11;strokeColor=#0e8088;fillColor=#b0e3e6;" parent="25" vertex="1">
                    <mxGeometry x="141" y="85.5" width="20" height="22.5" as="geometry"/>
                </mxCell>
                <mxCell id="22" value="&lt;b&gt;\0&lt;br&gt;&lt;/b&gt;" style="rounded=0;whiteSpace=wrap;html=1;comic=0;sketch=0;fontSize=11;strokeColor=#0e8088;fillColor=#b0e3e6;" parent="25" vertex="1">
                    <mxGeometry x="161" y="85.5" width="20" height="22.5" as="geometry"/>
                </mxCell>
                <mxCell id="23" value="" style="endArrow=none;html=1;sketch=1;fontSize=11;fontColor=#6262FC;entryX=1;entryY=1;entryDx=0;entryDy=0;exitX=0;exitY=0;exitDx=0;exitDy=0;" parent="25" source="17" target="15" edge="1">
                    <mxGeometry width="50" height="50" relative="1" as="geometry">
                        <mxPoint x="-170" y="147.5" as="sourcePoint"/>
                        <mxPoint x="-120" y="97.5" as="targetPoint"/>
                    </mxGeometry>
                </mxCell>
                <mxCell id="24" value="" style="endArrow=none;html=1;sketch=1;fontSize=11;fontColor=#6262FC;entryX=1;entryY=1;entryDx=0;entryDy=0;exitX=1;exitY=0;exitDx=0;exitDy=0;" parent="25" source="22" target="16" edge="1">
                    <mxGeometry width="50" height="50" relative="1" as="geometry">
                        <mxPoint x="30" y="107.5" as="sourcePoint"/>
                        <mxPoint x="110" y="67.5" as="targetPoint"/>
                    </mxGeometry>
                </mxCell>
                <mxCell id="30" style="sketch=1;html=1;exitX=1;exitY=0.5;exitDx=0;exitDy=0;entryX=0;entryY=0.5;entryDx=0;entryDy=0;fontSize=12;edgeStyle=orthogonalEdgeStyle;curved=1;" parent="1" source="27" target="29" edge="1">
                    <mxGeometry relative="1" as="geometry"/>
                </mxCell>
                <mxCell id="38" style="edgeStyle=orthogonalEdgeStyle;sketch=1;html=1;exitX=1;exitY=0.5;exitDx=0;exitDy=0;entryX=0;entryY=0.5;entryDx=0;entryDy=0;fontSize=12;curved=1;" parent="1" source="27" target="35" edge="1">
                    <mxGeometry relative="1" as="geometry"/>
                </mxCell>
                <mxCell id="44" style="edgeStyle=orthogonalEdgeStyle;sketch=1;html=1;exitX=1;exitY=0.5;exitDx=0;exitDy=0;entryX=0;entryY=0.5;entryDx=0;entryDy=0;fontSize=12;curved=1;" parent="1" source="27" target="43" edge="1">
                    <mxGeometry relative="1" as="geometry"/>
                </mxCell>
                <mxCell id="54" style="edgeStyle=orthogonalEdgeStyle;curved=1;sketch=1;html=1;exitX=1;exitY=0.5;exitDx=0;exitDy=0;entryX=0;entryY=0.5;entryDx=0;entryDy=0;" edge="1" parent="1" source="27" target="53">
                    <mxGeometry relative="1" as="geometry"/>
                </mxCell>
                <mxCell id="58" style="edgeStyle=orthogonalEdgeStyle;curved=1;sketch=1;html=1;exitX=1;exitY=0.5;exitDx=0;exitDy=0;entryX=0;entryY=0.5;entryDx=0;entryDy=0;" edge="1" parent="1" source="27" target="57">
                    <mxGeometry relative="1" as="geometry"/>
                </mxCell>
                <mxCell id="27" value="特点" style="rounded=0;whiteSpace=wrap;html=1;fillColor=#dae8fc;strokeColor=#6c8ebf;comic=1;" parent="1" vertex="1">
                    <mxGeometry x="200" y="620" width="60" height="30" as="geometry"/>
                </mxCell>
                <mxCell id="32" style="edgeStyle=none;sketch=1;html=1;entryX=0;entryY=0.5;entryDx=0;entryDy=0;fontSize=12;exitX=1;exitY=0.5;exitDx=0;exitDy=0;" parent="1" source="29" target="31" edge="1">
                    <mxGeometry relative="1" as="geometry"/>
                </mxCell>
                <mxCell id="34" style="edgeStyle=none;sketch=1;html=1;exitX=1;exitY=0.5;exitDx=0;exitDy=0;entryX=0;entryY=0.5;entryDx=0;entryDy=0;fontSize=12;" parent="1" source="29" target="33" edge="1">
                    <mxGeometry relative="1" as="geometry"/>
                </mxCell>
                <mxCell id="29" value="常数时间&lt;b&gt;获取字符串长度&lt;/b&gt;" style="rounded=0;whiteSpace=wrap;html=1;fillColor=#dae8fc;strokeColor=#6c8ebf;comic=1;" parent="1" vertex="1">
                    <mxGeometry x="310" y="383" width="150" height="30" as="geometry"/>
                </mxCell>
                <mxCell id="37" style="edgeStyle=none;sketch=1;html=1;exitX=1;exitY=0.5;exitDx=0;exitDy=0;entryX=0;entryY=0.5;entryDx=0;entryDy=0;fontSize=12;" parent="1" source="31" target="36" edge="1">
                    <mxGeometry relative="1" as="geometry"/>
                </mxCell>
                <mxCell id="31" value="C字符串需要遍历字符串到'\0'时才能确定字符串的长度，复杂度O(n)" style="rounded=0;whiteSpace=wrap;html=1;fillColor=#d5e8d4;strokeColor=#82b366;comic=1;sketch=1;" parent="1" vertex="1">
                    <mxGeometry x="500" y="370" width="380" height="27" as="geometry"/>
                </mxCell>
                <mxCell id="33" value="SDS可以直接读取len字段的值获取长度，复杂度O(1)" style="rounded=0;whiteSpace=wrap;html=1;fillColor=#ffe6cc;strokeColor=#d79b00;comic=1;sketch=1;" parent="1" vertex="1">
                    <mxGeometry x="500" y="405" width="290" height="25" as="geometry"/>
                </mxCell>
                <mxCell id="40" style="edgeStyle=none;sketch=1;html=1;exitX=1;exitY=0.5;exitDx=0;exitDy=0;entryX=0;entryY=0.5;entryDx=0;entryDy=0;fontSize=12;" parent="1" source="35" target="39" edge="1">
                    <mxGeometry relative="1" as="geometry"/>
                </mxCell>
                <mxCell id="42" style="edgeStyle=none;sketch=1;html=1;exitX=1;exitY=0.5;exitDx=0;exitDy=0;entryX=0;entryY=0.5;entryDx=0;entryDy=0;fontSize=12;" parent="1" source="35" target="41" edge="1">
                    <mxGeometry relative="1" as="geometry"/>
                </mxCell>
                <mxCell id="35" value="杜绝缓冲区溢出" style="rounded=0;whiteSpace=wrap;html=1;fillColor=#dae8fc;strokeColor=#6c8ebf;comic=1;" parent="1" vertex="1">
                    <mxGeometry x="310" y="480" width="120" height="30" as="geometry"/>
                </mxCell>
                <mxCell id="36" value="" style="shape=image;imageAspect=0;aspect=fixed;verticalLabelPosition=bottom;verticalAlign=top;comic=1;sketch=1;fontSize=12;strokeColor=default;image=https://codereaper-image-bed.oss-cn-shenzhen.aliyuncs.com/img/image-20220906120139592.png;imageBorder=default;" parent="1" vertex="1">
                    <mxGeometry x="910" y="296" width="145.65" height="175" as="geometry"/>
                </mxCell>
                <mxCell id="39" value="C字符串没有记录自身的长度，所以例如使用strcat等方法时就会缓冲区溢出，写到不该写的内存中去" style="rounded=0;whiteSpace=wrap;html=1;fillColor=#d5e8d4;strokeColor=#82b366;comic=1;sketch=1;align=left;" parent="1" vertex="1">
                    <mxGeometry x="500" y="455" width="380" height="35" as="geometry"/>
                </mxCell>
                <mxCell id="41" value="由于SDS中存有表示当前字符串&lt;b&gt;剩余空间的字段free&lt;/b&gt;，所以可以事先判断缓冲区是否不足，如果不足则创建新的SDS来容纳字符串" style="rounded=0;whiteSpace=wrap;html=1;fillColor=#ffe6cc;strokeColor=#d79b00;comic=1;sketch=1;align=left;" parent="1" vertex="1">
                    <mxGeometry x="500" y="500" width="380" height="35" as="geometry"/>
                </mxCell>
                <mxCell id="46" style="edgeStyle=orthogonalEdgeStyle;html=1;exitX=1;exitY=0.5;exitDx=0;exitDy=0;entryX=0;entryY=0.5;entryDx=0;entryDy=0;sketch=1;curved=1;" edge="1" parent="1" source="43" target="45">
                    <mxGeometry relative="1" as="geometry"/>
                </mxCell>
                <mxCell id="50" style="edgeStyle=orthogonalEdgeStyle;curved=1;sketch=1;html=1;exitX=1;exitY=0.5;exitDx=0;exitDy=0;entryX=0;entryY=0.5;entryDx=0;entryDy=0;" edge="1" parent="1" source="43" target="49">
                    <mxGeometry relative="1" as="geometry"/>
                </mxCell>
                <mxCell id="43" value="减少内存分配" style="rounded=0;whiteSpace=wrap;html=1;fillColor=#e1d5e7;strokeColor=#9673a6;comic=1;" parent="1" vertex="1">
                    <mxGeometry x="310" y="620" width="90" height="30" as="geometry"/>
                </mxCell>
                <mxCell id="48" style="edgeStyle=orthogonalEdgeStyle;curved=1;sketch=1;html=1;exitX=1;exitY=0.5;exitDx=0;exitDy=0;entryX=0;entryY=0.5;entryDx=0;entryDy=0;" edge="1" parent="1" source="45" target="47">
                    <mxGeometry relative="1" as="geometry"/>
                </mxCell>
                <mxCell id="45" value="空间预分配" style="rounded=0;whiteSpace=wrap;html=1;fillColor=#dae8fc;strokeColor=#6c8ebf;comic=1;" vertex="1" parent="1">
                    <mxGeometry x="430" y="580" width="90" height="30" as="geometry"/>
                </mxCell>
                <mxCell id="62" style="edgeStyle=orthogonalEdgeStyle;curved=1;sketch=1;html=1;exitX=1;exitY=0.5;exitDx=0;exitDy=0;entryX=0;entryY=0.5;entryDx=0;entryDy=0;" edge="1" parent="1" source="47" target="61">
                    <mxGeometry relative="1" as="geometry"/>
                </mxCell>
                <mxCell id="47" value="&lt;div style=&quot;text-align: left&quot;&gt;① 如果对SDS进行修改之后，SDS的&lt;b&gt;长度将小于1MB&lt;/b&gt;，则程序分配&lt;b&gt;和len属性同样大小的未使用空间&lt;/b&gt;&lt;/div&gt;&lt;div style=&quot;text-align: left&quot;&gt;② 如果对SDS进行修改之后，SDS的长度将&lt;b&gt;大于等于1MB&lt;/b&gt;，则程序会&lt;b&gt;分配1MB的未使用空间&lt;/b&gt;&lt;/div&gt;" style="rounded=0;whiteSpace=wrap;html=1;fillColor=#ffe6cc;strokeColor=#d79b00;comic=1;sketch=1;" vertex="1" parent="1">
                    <mxGeometry x="550" y="560" width="330" height="70" as="geometry"/>
                </mxCell>
                <mxCell id="52" style="sketch=1;html=1;exitX=1;exitY=0.5;exitDx=0;exitDy=0;entryX=0;entryY=0.5;entryDx=0;entryDy=0;" edge="1" parent="1" source="49" target="51">
                    <mxGeometry relative="1" as="geometry"/>
                </mxCell>
                <mxCell id="49" value="惰性空间释放" style="rounded=0;whiteSpace=wrap;html=1;fillColor=#dae8fc;strokeColor=#6c8ebf;comic=1;" vertex="1" parent="1">
                    <mxGeometry x="430" y="675" width="90" height="30" as="geometry"/>
                </mxCell>
                <mxCell id="66" style="edgeStyle=orthogonalEdgeStyle;curved=1;sketch=1;html=1;exitX=1;exitY=0.5;exitDx=0;exitDy=0;entryX=0;entryY=0.5;entryDx=0;entryDy=0;" edge="1" parent="1" source="51" target="65">
                    <mxGeometry relative="1" as="geometry"/>
                </mxCell>
                <mxCell id="51" value="&lt;div style=&quot;text-align: left&quot;&gt;当SDS的API需要缩短SDS保存的字符串时，程序并不立即使用内存重分配来回收缩短后多出来的字节，而是使用free属性将多出来的空间记录起来，避免了多次的空间释放和申请&lt;/div&gt;" style="rounded=0;whiteSpace=wrap;html=1;fillColor=#ffe6cc;strokeColor=#d79b00;comic=1;sketch=1;" vertex="1" parent="1">
                    <mxGeometry x="550" y="660" width="330" height="60" as="geometry"/>
                </mxCell>
                <mxCell id="56" style="edgeStyle=orthogonalEdgeStyle;curved=1;sketch=1;html=1;exitX=1;exitY=0.5;exitDx=0;exitDy=0;entryX=0;entryY=0.5;entryDx=0;entryDy=0;" edge="1" parent="1" source="53" target="55">
                    <mxGeometry relative="1" as="geometry"/>
                </mxCell>
                <mxCell id="53" value="二进制安全" style="rounded=0;whiteSpace=wrap;html=1;fillColor=#dae8fc;strokeColor=#6c8ebf;comic=1;" vertex="1" parent="1">
                    <mxGeometry x="310" y="784.48" width="90" height="30" as="geometry"/>
                </mxCell>
                <mxCell id="70" style="edgeStyle=orthogonalEdgeStyle;curved=1;sketch=1;html=1;exitX=1;exitY=0.5;exitDx=0;exitDy=0;entryX=0;entryY=0.5;entryDx=0;entryDy=0;" edge="1" parent="1" source="55" target="69">
                    <mxGeometry relative="1" as="geometry"/>
                </mxCell>
                <mxCell id="55" value="&lt;div style=&quot;text-align: left&quot;&gt;- C语言中的字符串以'\0'结尾，因此如果有些二进制数据如音频视频等，可能会出现'\0'这个内容，在C语言中就默认是结束了&lt;/div&gt;&lt;div style=&quot;text-align: left&quot;&gt;- 而redis中的字符串以&lt;b&gt;len字段&lt;/b&gt;来指出数据的长度，所以可以保存二进制数据，不会有上述'\0'结束的问题&lt;/div&gt;" style="rounded=0;whiteSpace=wrap;html=1;fillColor=#ffe6cc;strokeColor=#d79b00;comic=1;sketch=1;" vertex="1" parent="1">
                    <mxGeometry x="430" y="766.98" width="340" height="65" as="geometry"/>
                </mxCell>
                <mxCell id="60" style="edgeStyle=orthogonalEdgeStyle;curved=1;sketch=1;html=1;exitX=1;exitY=0.5;exitDx=0;exitDy=0;entryX=0;entryY=0.5;entryDx=0;entryDy=0;" edge="1" parent="1" source="57" target="59">
                    <mxGeometry relative="1" as="geometry"/>
                </mxCell>
                <mxCell id="57" value="兼容部分C字符串函数" style="rounded=0;whiteSpace=wrap;html=1;fillColor=#dae8fc;strokeColor=#6c8ebf;comic=1;" vertex="1" parent="1">
                    <mxGeometry x="310" y="864.48" width="130" height="30" as="geometry"/>
                </mxCell>
                <mxCell id="59" value="&lt;div style=&quot;text-align: left&quot;&gt;redis的字符串也在末尾添加了'\0'，这样就可以&lt;b&gt;重用部分的C字符串API&lt;/b&gt;，例如strcat、strcpy等等&lt;/div&gt;" style="rounded=0;whiteSpace=wrap;html=1;fillColor=#ffe6cc;strokeColor=#d79b00;comic=1;sketch=1;" vertex="1" parent="1">
                    <mxGeometry x="475" y="855.73" width="340" height="47.5" as="geometry"/>
                </mxCell>
                <mxCell id="64" value="执行&lt;br&gt;sdscat&lt;br&gt;后" style="edgeStyle=orthogonalEdgeStyle;curved=1;sketch=1;html=1;exitX=1;exitY=0.5;exitDx=0;exitDy=0;entryX=0;entryY=0.5;entryDx=0;entryDy=0;" edge="1" parent="1" source="61" target="63">
                    <mxGeometry relative="1" as="geometry"/>
                </mxCell>
                <mxCell id="61" value="" style="shape=image;imageAspect=0;aspect=fixed;verticalLabelPosition=bottom;verticalAlign=top;sketch=1;image=https://codereaper-image-bed.oss-cn-shenzhen.aliyuncs.com/img/image-20220908120740962.png;imageBorder=default;" vertex="1" parent="1">
                    <mxGeometry x="900" y="553.83" width="201.75" height="82.34" as="geometry"/>
                </mxCell>
                <mxCell id="63" value="" style="shape=image;imageAspect=0;aspect=fixed;verticalLabelPosition=bottom;verticalAlign=top;sketch=1;image=https://codereaper-image-bed.oss-cn-shenzhen.aliyuncs.com/img/image-20220908120834515.png;imageBorder=default;" vertex="1" parent="1">
                    <mxGeometry x="1160" y="551.9200000000001" width="476.67" height="86.17" as="geometry"/>
                </mxCell>
                <mxCell id="68" value="执行&lt;br&gt;sdstrim&lt;br&gt;后" style="edgeStyle=orthogonalEdgeStyle;curved=1;sketch=1;html=1;exitX=1;exitY=0.5;exitDx=0;exitDy=0;entryX=0;entryY=0.5;entryDx=0;entryDy=0;" edge="1" parent="1" source="65" target="67">
                    <mxGeometry relative="1" as="geometry"/>
                </mxCell>
                <mxCell id="65" value="" style="shape=image;imageAspect=0;aspect=fixed;verticalLabelPosition=bottom;verticalAlign=top;sketch=1;image=https://codereaper-image-bed.oss-cn-shenzhen.aliyuncs.com/img/image-20220908120928063.png;imageBorder=default;" vertex="1" parent="1">
                    <mxGeometry x="900" y="650" width="320" height="80" as="geometry"/>
                </mxCell>
                <mxCell id="67" value="" style="shape=image;imageAspect=0;aspect=fixed;verticalLabelPosition=bottom;verticalAlign=top;sketch=1;image=https://codereaper-image-bed.oss-cn-shenzhen.aliyuncs.com/img/image-20220908121009350.png;imageBorder=default;" vertex="1" parent="1">
                    <mxGeometry x="1280" y="650" width="279.19" height="80" as="geometry"/>
                </mxCell>
                <mxCell id="69" value="" style="shape=image;imageAspect=0;aspect=fixed;verticalLabelPosition=bottom;verticalAlign=top;sketch=1;image=https://codereaper-image-bed.oss-cn-shenzhen.aliyuncs.com/img/image-20220908121101351.png;imageBorder=default;" vertex="1" parent="1">
                    <mxGeometry x="810" y="750" width="365" height="98.97" as="geometry"/>
                </mxCell>
            </root>
        </mxGraphModel>
    </diagram>
</mxfile>